<?xml version="1.0" encoding="UTF-8"?>
<svg id="Layer_2" data-name="Layer 2" xmlns="http://www.w3.org/2000/svg" viewBox="0 0 174.89 48.82">
  <defs>
    <style>
      .cls-1 {
        fill: #ff9994;
      }

      .cls-2 {
        fill: #fff;
      }
    </style>
  </defs>
  <g id="Design">
    <g>
      <rect class="cls-1" x="0" y="0" width="174.89" height="48.82" rx="8.62" ry="8.62"/>
      <g>
        <path class="cls-2" d="M22.61,25.34v-7.92c0-.17.11-.28.28-.28h2.14c.17,0,.28.11.28.28v7.87c0,1.74.85,2.68,2.31,2.68s2.29-.95,2.29-2.68v-7.87c0-.17.11-.28.28-.28h2.14c.17,0,.28.11.28.28v7.92c0,3.48-2.08,5.28-4.99,5.28s-5.01-1.8-5.01-5.28Z"/>
        <path class="cls-2" d="M34.94,33.68v-12.29c0-.17.11-.28.28-.28h1.87c.17,0,.28.11.28.28l.04,1.02c.62-.96,1.61-1.53,3.03-1.53,2.59,0,4.39,2.12,4.39,4.86s-1.8,4.86-4.39,4.86c-1.27,0-2.23-.49-2.87-1.32v4.41c0,.17-.11.28-.28.28h-2.06c-.17,0-.28-.11-.28-.28ZM39.89,28.22c1.36,0,2.38-.98,2.38-2.48s-1.02-2.48-2.38-2.48-2.36.98-2.36,2.48.96,2.48,2.36,2.48Z"/>
        <path class="cls-2" d="M46.6,30.09v-12.95c0-.17.11-.28.28-.28h2.06c.17,0,.28.11.28.28v12.95c0,.17-.11.28-.28.28h-2.06c-.17,0-.28-.11-.28-.28Z"/>
        <path class="cls-2" d="M51,25.74c0-2.74,2.06-4.86,4.86-4.86s4.84,2.12,4.84,4.86-2.06,4.86-4.84,4.86-4.86-2.12-4.86-4.86ZM55.86,28.2c1.31,0,2.33-.95,2.33-2.46s-1.02-2.46-2.33-2.46-2.34.95-2.34,2.46,1.02,2.46,2.34,2.46Z"/>
        <path class="cls-2" d="M61.98,25.74c0-2.74,1.8-4.86,4.41-4.86,1.4,0,2.4.57,3.03,1.53l.04-1.02c0-.17.11-.28.28-.28h1.85c.17,0,.28.11.28.28v8.7c0,.17-.13.28-.3.28h-1.83c-.17,0-.28-.11-.28-.28l-.04-1.02c-.64.95-1.64,1.53-3.03,1.53-2.61,0-4.41-2.1-4.41-4.86ZM66.94,28.22c1.38,0,2.34-.98,2.34-2.48s-.96-2.48-2.34-2.48-2.4,1-2.4,2.48,1.02,2.48,2.4,2.48Z"/>
        <path class="cls-2" d="M73.64,25.74c0-2.74,1.8-4.86,4.41-4.86,1.29,0,2.23.47,2.85,1.3v-5.05c0-.17.11-.28.28-.28h2.06c.17,0,.28.11.28.28v12.95c0,.17-.13.28-.3.28h-1.83c-.17,0-.28-.11-.28-.28l-.04-1.02c-.64.95-1.64,1.53-3.03,1.53-2.61,0-4.41-2.1-4.41-4.86ZM78.6,28.22c1.38,0,2.34-.98,2.34-2.48s-.96-2.48-2.34-2.48-2.4,1-2.4,2.48,1.02,2.48,2.4,2.48Z"/>
        <path class="cls-2" d="M89.65,30.09v-12.67c0-.17.11-.28.28-.28h2.14c.17,0,.28.11.28.28v12.67c0,.17-.11.28-.28.28h-2.14c-.17,0-.28-.11-.28-.28Z"/>
        <path class="cls-2" d="M94.79,30.09v-8.7c0-.17.11-.28.28-.28h1.97c.17,0,.28.08.28.3l.08,1.1c.53-.95,1.42-1.63,2.8-1.63,1.93,0,3.35,1.4,3.35,3.82v5.39c0,.17-.13.28-.3.28h-2.02c-.17,0-.28-.11-.28-.28v-4.8c0-1.3-.61-2-1.72-2s-1.82.7-1.82,2v4.8c0,.17-.11.28-.28.28h-2.04c-.17,0-.28-.11-.28-.28Z"/>
        <path class="cls-2" d="M105.47,29.07c-.11-.13-.09-.34.04-.55l.66-.93c.15-.23.32-.19.47-.08.78.59,1.42.91,2.14.91.62,0,1.04-.25,1.04-.78,0-.45-.28-.66-.96-.95l-1.17-.47c-1.19-.47-2.02-1.27-2.02-2.55,0-1.78,1.51-2.8,3.23-2.8,1.21,0,2.33.49,3.1,1.42.11.13.08.28-.02.4l-.83,1c-.13.15-.26.13-.43,0-.61-.51-1.13-.78-1.68-.78-.61,0-.89.34-.89.74,0,.45.38.7.89.89l1.3.51c1.17.47,2.1,1.29,2.08,2.7-.02,1.87-1.63,2.84-3.48,2.84-1.55,0-2.72-.66-3.46-1.53Z"/>
        <path class="cls-2" d="M114.77,27.78v-4.65h-1.17c-.17,0-.28-.11-.28-.28v-1.46c0-.17.11-.28.28-.28h1.17v-2.17c0-.17.11-.28.28-.28h2.06c.17,0,.28.11.28.28v2.17h1.46c.17,0,.28.11.28.28v1.46c0,.17-.11.28-.28.28h-1.46v4.37c0,.55.32.81.81.81.17,0,.36,0,.59-.02.21-.02.34.08.34.26v1.38c0,.43-.95.55-1.57.55-1.47,0-2.8-.68-2.8-2.7Z"/>
        <path class="cls-2" d="M120.23,25.7c0-2.72,1.91-4.82,4.76-4.82s4.44,2.08,4.44,4.42c0,.91-.21,1.42-1.02,1.42h-5.63c.28,1.17,1.25,1.82,2.74,1.82.72,0,1.4-.13,2.16-.57.13-.08.23-.06.32.08l.7.96c.1.13.08.26-.09.42-.79.79-1.99,1.17-3.29,1.17-3.04,0-5.09-2.1-5.09-4.9ZM127.12,24.89c-.15-1.23-.98-1.85-2.1-1.85s-2.04.62-2.27,1.85h4.37Z"/>
        <path class="cls-2" d="M130.72,25.74c0-2.74,1.8-4.86,4.41-4.86,1.4,0,2.4.57,3.03,1.53l.04-1.02c0-.17.11-.28.28-.28h1.85c.17,0,.28.11.28.28v8.7c0,.17-.13.28-.3.28h-1.83c-.17,0-.28-.11-.28-.28l-.04-1.02c-.64.95-1.64,1.53-3.03,1.53-2.61,0-4.41-2.1-4.41-4.86ZM135.68,28.22c1.38,0,2.34-.98,2.34-2.48s-.96-2.48-2.34-2.48-2.4,1-2.4,2.48,1.02,2.48,2.4,2.48Z"/>
        <path class="cls-2" d="M142.38,25.74c0-2.74,1.8-4.86,4.41-4.86,1.29,0,2.23.47,2.85,1.3v-5.05c0-.17.11-.28.28-.28h2.06c.17,0,.28.11.28.28v12.95c0,.17-.13.28-.3.28h-1.83c-.17,0-.28-.11-.28-.28l-.04-1.02c-.64.95-1.64,1.53-3.03,1.53-2.61,0-4.41-2.1-4.41-4.86ZM147.34,28.22c1.38,0,2.34-.98,2.34-2.48s-.96-2.48-2.34-2.48-2.4,1-2.4,2.48,1.02,2.48,2.4,2.48Z"/>
      </g>
    </g>
  </g>
</svg>