<?xml version="1.0" encoding="UTF-8"?>
<svg id="Layer_2" data-name="Layer 2" xmlns="http://www.w3.org/2000/svg" viewBox="0 0 154.05 33.06">
  <defs>
    <style>
      .cls-1 {
        fill: #c9a0dc;
      }
    </style>
  </defs>
  <g id="Design">
    <g>
      <path class="cls-1" d="M5.81,8.44C2.97,1.54,2.35.96.38.72l-.38-.05V.1h11.04v.58l-1.25.05c-2.64.1-2.25,1.49.1,7.39l7.72,19.43,6.33-16.65c.96-2.45,1.44-4.89,1.44-6.91,0-1.82-.43-3.17-2.45-3.26l-1.01-.05V.1h10.12v.58l-.53.05c-2.3.19-3.31,1.25-6.77,10.12l-8.44,22.12h-.48L5.81,8.44Z"/>
      <path class="cls-1" d="M32.53,32.43v-.58l.96-.05c1.82-.1,2.21-.1,2.21-6.38v-7.44c0-6.29-.38-6.29-2.21-6.38l-.96-.05v-.58h6.77v14.44c0,6.29.38,6.29,2.16,6.38l.96.05v.58h-9.88ZM37.42,4.65c-1.1,0-2.06-.91-2.06-2.35s.96-2.3,2.06-2.3,2.11.86,2.11,2.3-.96,2.35-2.11,2.35Z"/>
      <path class="cls-1" d="M55.94,33.06c-6.77,0-10.65-5.52-10.65-11.37s3.89-11.28,10.65-11.28,10.7,5.47,10.7,11.32-3.93,11.32-10.7,11.32ZM55.94,11.04c-5.18,0-6.38,4.94-6.38,10.7s1.2,10.7,6.38,10.7,6.33-4.89,6.33-10.65-1.2-10.75-6.33-10.75Z"/>
      <path class="cls-1" d="M69.42,32.43v-.58l.96-.05c1.82-.1,2.21-.1,2.21-6.38V7.1c0-6.29-.38-6.29-2.21-6.38l-.96-.05V.1h6.77v25.33c0,6.29.38,6.29,2.16,6.38l.96.05v.58h-9.88Z"/>
      <path class="cls-1" d="M92.78,33.06c-6.96,0-10.6-5.57-10.6-11.28,0-7.87,4.65-11.37,9.93-11.37,6.86,0,9.5,4.27,9.5,10.03h-15.21v.96c0,4.46.77,10.65,7.29,10.65,3.84,0,6.33-1.73,7.2-5.37l.67.14c-.91,3.98-3.93,6.24-8.78,6.24ZM92.11,11.04c-4.65,0-5.66,3.84-5.71,8.78h10.99c0-4.08-.77-8.78-5.28-8.78Z"/>
      <path class="cls-1" d="M117.92,27.73c0,2.97-.82,5.28-4.32,5.28s-5.57-2.4-5.57-7.29v-14.11h-3.45v-.62h3.45V3.31h3.6v7.68h5.61v.62h-5.61v14.11c0,4.17.62,6.38,2.78,6.38,1.92,0,2.93-1.44,2.93-4.37h.58Z"/>
      <path class="cls-1" d="M132.55,27.73c0,2.97-.82,5.28-4.32,5.28s-5.57-2.4-5.57-7.29v-14.11h-3.45v-.62h3.45V3.31h3.6v7.68h5.61v.62h-5.61v14.11c0,4.17.62,6.38,2.78,6.38,1.92,0,2.93-1.44,2.93-4.37h.58Z"/>
      <path class="cls-1" d="M145.22,33.06c-6.96,0-10.6-5.57-10.6-11.28,0-7.87,4.65-11.37,9.93-11.37,6.86,0,9.5,4.27,9.5,10.03h-15.21v.96c0,4.46.77,10.65,7.29,10.65,3.84,0,6.33-1.73,7.2-5.37l.67.14c-.91,3.98-3.93,6.24-8.78,6.24ZM144.55,11.04c-4.65,0-5.66,3.84-5.71,8.78h10.99c0-4.08-.77-8.78-5.28-8.78Z"/>
    </g>
  </g>
</svg>