<?xml version="1.0" encoding="UTF-8"?>
<svg id="Layer_2" data-name="Layer 2" xmlns="http://www.w3.org/2000/svg" xmlns:xlink="http://www.w3.org/1999/xlink" viewBox="0 0 243.37 185.2">
  <defs>
    <style>
      .cls-1 {
        fill: url(#linear-gradient-8);
      }

      .cls-2 {
        fill: url(#linear-gradient-7);
      }

      .cls-3 {
        fill: url(#linear-gradient-5);
      }

      .cls-4 {
        fill: url(#linear-gradient-6);
      }

      .cls-5 {
        fill: url(#linear-gradient-9);
      }

      .cls-6 {
        fill: url(#linear-gradient-4);
      }

      .cls-7 {
        fill: url(#linear-gradient);
      }

      .cls-8 {
        fill: url(#linear-gradient-2);
      }

      .cls-8, .cls-9 {
        opacity: .6;
      }

      .cls-9 {
        fill: url(#linear-gradient-3);
      }

      .cls-10 {
        fill: url(#linear-gradient-10);
      }

      .cls-11 {
        fill: url(#linear-gradient-11);
      }

      .cls-12 {
        fill: url(#linear-gradient-12);
      }

      .cls-13 {
        fill: url(#linear-gradient-13);
      }

      .cls-14 {
        fill: url(#linear-gradient-19);
      }

      .cls-15 {
        fill: url(#linear-gradient-14);
      }

      .cls-16 {
        fill: url(#linear-gradient-21);
      }

      .cls-17 {
        fill: url(#linear-gradient-20);
      }

      .cls-18 {
        fill: url(#linear-gradient-22);
      }

      .cls-19 {
        fill: url(#linear-gradient-23);
      }

      .cls-20 {
        fill: url(#linear-gradient-25);
      }

      .cls-21 {
        fill: url(#linear-gradient-15);
      }

      .cls-22 {
        fill: url(#linear-gradient-16);
      }

      .cls-23 {
        fill: url(#linear-gradient-17);
      }

      .cls-24 {
        fill: url(#linear-gradient-18);
      }

      .cls-25 {
        fill: url(#linear-gradient-27);
      }

      .cls-26 {
        fill: url(#linear-gradient-24);
      }

      .cls-27 {
        fill: url(#linear-gradient-26);
      }

      .cls-28 {
        fill: none;
        stroke: #c9a0dc;
        stroke-linejoin: round;
        stroke-width: 8.9px;
      }
    </style>
    <linearGradient id="linear-gradient" x1="-14604.47" y1="21" x2="-14564.21" y2="21" gradientTransform="translate(14630.09 42) scale(1 -1)" gradientUnits="userSpaceOnUse">
      <stop offset="0" stop-color="#fff" stop-opacity=".1"/>
      <stop offset=".5" stop-color="#c9a0dc" stop-opacity=".37"/>
      <stop offset=".62" stop-color="#c9a0dc" stop-opacity=".38"/>
      <stop offset=".72" stop-color="#c9a0dc" stop-opacity=".43"/>
      <stop offset=".8" stop-color="#c9a0dc" stop-opacity=".5"/>
      <stop offset=".88" stop-color="#c9a0dc" stop-opacity=".61"/>
      <stop offset=".96" stop-color="#c9a0dc" stop-opacity=".74"/>
      <stop offset=".99" stop-color="#c9a0dc" stop-opacity=".8"/>
    </linearGradient>
    <linearGradient id="linear-gradient-2" x1="4.45" y1="92.6" x2="238.92" y2="92.6" gradientTransform="matrix(1,0,0,1,0,0)" xlink:href="#linear-gradient"/>
    <linearGradient id="linear-gradient-3" x1="68.28" y1="105.25" x2="175.09" y2="105.25" gradientUnits="userSpaceOnUse">
      <stop offset=".01" stop-color="#c9a0dc" stop-opacity=".8"/>
      <stop offset=".04" stop-color="#c9a0dc" stop-opacity=".74"/>
      <stop offset=".12" stop-color="#c9a0dc" stop-opacity=".61"/>
      <stop offset=".2" stop-color="#c9a0dc" stop-opacity=".5"/>
      <stop offset=".28" stop-color="#c9a0dc" stop-opacity=".43"/>
      <stop offset=".38" stop-color="#c9a0dc" stop-opacity=".38"/>
      <stop offset=".5" stop-color="#c9a0dc" stop-opacity=".37"/>
      <stop offset="1" stop-color="#fff" stop-opacity=".1"/>
    </linearGradient>
    <linearGradient id="linear-gradient-4" x1="-8166.78" y1="4560.9" x2="-8153.42" y2="4524.2" gradientTransform="translate(-6091.37 7091.25) rotate(160.85)" gradientUnits="userSpaceOnUse">
      <stop offset="0" stop-color="#c9a0dc" stop-opacity="0"/>
      <stop offset=".19" stop-color="#c9a0dc" stop-opacity=".01"/>
      <stop offset=".33" stop-color="#c9a0dc" stop-opacity=".06"/>
      <stop offset=".46" stop-color="#c9a0dc" stop-opacity=".13"/>
      <stop offset=".57" stop-color="#c9a0dc" stop-opacity=".23"/>
      <stop offset=".68" stop-color="#c9a0dc" stop-opacity=".36"/>
      <stop offset=".78" stop-color="#c9a0dc" stop-opacity=".53"/>
      <stop offset=".88" stop-color="#c9a0dc" stop-opacity=".72"/>
      <stop offset=".98" stop-color="#c9a0dc" stop-opacity=".94"/>
      <stop offset="1" stop-color="#c9a0dc"/>
    </linearGradient>
    <linearGradient id="linear-gradient-5" x1="-7294.82" y1="5545.76" x2="-7281.46" y2="5509.05" gradientTransform="translate(-6746.91 6164.4) rotate(175.85)" xlink:href="#linear-gradient-4"/>
    <linearGradient id="linear-gradient-6" x1="-6197.67" y1="6271.38" x2="-6184.31" y2="6234.67" gradientTransform="translate(-7140.23 5099.47) rotate(-169.15)" xlink:href="#linear-gradient-4"/>
    <linearGradient id="linear-gradient-7" x1="-4950.1" y1="6688.31" x2="-4936.74" y2="6651.6" gradientTransform="translate(-7244.52 3969.03) rotate(-154.15)" xlink:href="#linear-gradient-4"/>
    <linearGradient id="linear-gradient-8" x1="-3637.14" y1="6768.15" x2="-3623.78" y2="6731.44" gradientTransform="translate(-7052.68 2850.12) rotate(-139.15)" xlink:href="#linear-gradient-4"/>
    <linearGradient id="linear-gradient-9" x1="-2348.25" y1="6505.44" x2="-2334.89" y2="6468.73" gradientTransform="translate(-6577.78 1818.98) rotate(-124.15)" xlink:href="#linear-gradient-4"/>
    <linearGradient id="linear-gradient-10" x1="-1171.27" y1="5918.09" x2="-1157.91" y2="5881.38" gradientTransform="translate(-5852.18 945.9) rotate(-109.15)" xlink:href="#linear-gradient-4"/>
    <linearGradient id="linear-gradient-11" x1="-186.41" y1="5046.13" x2="-173.05" y2="5009.42" gradientTransform="translate(-4925.34 290.36) rotate(-94.15)" xlink:href="#linear-gradient-4"/>
    <linearGradient id="linear-gradient-12" x1="539.21" y1="3948.98" x2="552.57" y2="3912.27" gradientTransform="translate(-3860.41 -102.96) rotate(-79.15)" xlink:href="#linear-gradient-4"/>
    <linearGradient id="linear-gradient-13" x1="956.14" y1="2701.42" x2="969.5" y2="2664.71" gradientTransform="translate(-2729.97 -207.26) rotate(-64.15)" xlink:href="#linear-gradient-4"/>
    <linearGradient id="linear-gradient-14" x1="1035.97" y1="1388.45" x2="1049.33" y2="1351.74" gradientTransform="translate(-1611.06 -15.41) rotate(-49.15)" xlink:href="#linear-gradient-4"/>
    <linearGradient id="linear-gradient-15" x1="773.26" y1="99.56" x2="786.62" y2="62.85" gradientTransform="translate(-579.92 459.49) rotate(-34.15)" xlink:href="#linear-gradient-4"/>
    <linearGradient id="linear-gradient-16" x1="185.91" y1="-1077.42" x2="199.28" y2="-1114.13" gradientTransform="translate(293.17 1185.08) rotate(-19.15)" xlink:href="#linear-gradient-4"/>
    <linearGradient id="linear-gradient-17" x1="-686.04" y1="-2062.28" x2="-672.68" y2="-2098.99" gradientTransform="translate(948.71 2111.93) rotate(-4.15)" xlink:href="#linear-gradient-4"/>
    <linearGradient id="linear-gradient-18" x1="-1783.19" y1="-2787.9" x2="-1769.83" y2="-2824.61" gradientTransform="translate(1342.03 3176.85) rotate(10.85)" xlink:href="#linear-gradient-4"/>
    <linearGradient id="linear-gradient-19" x1="-3030.76" y1="-3204.83" x2="-3017.4" y2="-3241.54" gradientTransform="translate(1446.32 4307.29) rotate(25.85)" xlink:href="#linear-gradient-4"/>
    <linearGradient id="linear-gradient-20" x1="-4343.72" y1="-3284.66" x2="-4330.36" y2="-3321.37" gradientTransform="translate(1254.48 5426.21) rotate(40.85)" xlink:href="#linear-gradient-4"/>
    <linearGradient id="linear-gradient-21" x1="-5632.61" y1="-3021.95" x2="-5619.25" y2="-3058.66" gradientTransform="translate(779.58 6457.35) rotate(55.85)" xlink:href="#linear-gradient-4"/>
    <linearGradient id="linear-gradient-22" x1="-6809.59" y1="-2434.6" x2="-6796.23" y2="-2471.31" gradientTransform="translate(53.98 7330.43) rotate(70.85)" xlink:href="#linear-gradient-4"/>
    <linearGradient id="linear-gradient-23" x1="-7794.45" y1="-1562.64" x2="-7781.09" y2="-1599.35" gradientTransform="translate(-872.86 7985.97) rotate(85.85)" xlink:href="#linear-gradient-4"/>
    <linearGradient id="linear-gradient-24" x1="-8520.07" y1="-465.5" x2="-8506.71" y2="-502.21" gradientTransform="translate(-1937.79 8379.29) rotate(100.85)" xlink:href="#linear-gradient-4"/>
    <linearGradient id="linear-gradient-25" x1="-8937" y1="782.07" x2="-8923.64" y2="745.36" gradientTransform="translate(-3068.23 8483.58) rotate(115.85)" xlink:href="#linear-gradient-4"/>
    <linearGradient id="linear-gradient-26" x1="-9016.83" y1="2095.04" x2="-9003.47" y2="2058.33" gradientTransform="translate(-4187.14 8291.74) rotate(130.85)" xlink:href="#linear-gradient-4"/>
    <linearGradient id="linear-gradient-27" x1="-8754.12" y1="3383.93" x2="-8740.76" y2="3347.22" gradientTransform="translate(-5218.28 7816.84) rotate(145.85)" xlink:href="#linear-gradient-4"/>
  </defs>
  <g id="Design">
    <g>
      <g>
        <path class="cls-7" d="M25.61,13.95h40.26v.99c0,7.24-5.88,13.12-13.12,13.12h-14.03c-7.24,0-13.12-5.88-13.12-13.12v-.99h0Z" transform="translate(91.49 42) rotate(180)"/>
        <path class="cls-28" d="M25.61,13.95h40.26v.99c0,7.24-5.88,13.12-13.12,13.12h-14.03c-7.24,0-13.12-5.88-13.12-13.12v-.99h0Z" transform="translate(91.49 42) rotate(180)"/>
        <path class="cls-8" d="M215.62,28.05h-39.8l-10.23-17.44c-2.24-3.82-6.33-6.16-10.76-6.16h-66.29c-4.43,0-8.52,2.34-10.76,6.16l-10.23,17.44H27.76c-12.87,0-23.31,10.44-23.31,23.31v106.08c0,12.87,10.44,23.31,23.31,23.31h187.86c12.87,0,23.31-10.44,23.31-23.31V51.36c0-12.87-10.44-23.31-23.31-23.31Z"/>
        <path class="cls-28" d="M215.62,28.05h-39.8l-10.23-17.44c-2.24-3.82-6.33-6.16-10.76-6.16h-66.29c-4.43,0-8.52,2.34-10.76,6.16l-10.23,17.44H27.76c-12.87,0-23.31,10.44-23.31,23.31v106.08c0,12.87,10.44,23.31,23.31,23.31h187.86c12.87,0,23.31-10.44,23.31-23.31V51.36c0-12.87-10.44-23.31-23.31-23.31Z"/>
      </g>
      <g>
        <circle class="cls-9" cx="121.69" cy="105.25" r="53.41"/>
        <g>
          <path class="cls-6" d="M119.1,125.28c-3.7-10.67-3.57-18.68,2.35-20.73,5.92-2.06,10.98,4.15,14.69,14.82,3.7,10.67,3.43,22.18-1.28,23.81-4.7,1.63-12.05-7.23-15.76-17.9Z"/>
          <path class="cls-3" d="M114,123.93c-.82-11.26,1.38-18.96,7.63-19.42s9.54,6.85,10.35,18.11c.82,11.26-2.43,22.31-7.4,22.67-4.97.36-9.77-10.11-10.59-21.37Z"/>
          <path class="cls-4" d="M109.43,121.3c2.13-11.09,6.24-17.96,12.4-16.78s7.44,9.09,5.31,20.18c-2.13,11.09-8.12,20.92-13.01,19.99-4.89-.94-6.82-12.29-4.7-23.38Z"/>
          <path class="cls-2" d="M105.69,117.58c4.92-10.16,10.68-15.73,16.32-13,5.64,2.73,4.83,10.7-.09,20.86-4.92,10.16-13.26,18.11-17.74,15.94-4.48-2.17-3.41-13.64,1.52-23.8Z"/>
          <path class="cls-1" d="M103.04,113.03c7.39-8.54,14.39-12.43,19.13-8.33,4.74,4.1,1.9,11.59-5.49,20.13-7.39,8.54-17.5,14.06-21.26,10.8-3.77-3.26.24-14.05,7.62-22.6Z"/>
          <path class="cls-5" d="M101.67,107.94c9.35-6.34,17.11-8.29,20.63-3.1,3.52,5.19-1.17,11.68-10.51,18.02-9.35,6.34-20.54,9.05-23.33,4.93-2.79-4.12,3.87-13.51,13.21-19.85Z"/>
          <path class="cls-10" d="M101.66,102.66c10.67-3.7,18.68-3.57,20.73,2.35,2.06,5.92-4.15,10.98-14.82,14.69-10.67,3.7-22.18,3.43-23.81-1.28-1.63-4.7,7.23-12.05,17.9-15.76Z"/>
          <path class="cls-11" d="M103.01,97.57c11.26-.82,18.96,1.38,19.42,7.63s-6.85,9.54-18.11,10.35c-11.26.82-22.31-2.43-22.67-7.4-.36-4.97,10.11-9.77,21.37-10.59Z"/>
          <path class="cls-12" d="M105.63,92.99c11.09,2.13,17.96,6.24,16.78,12.4-1.18,6.15-9.09,7.44-20.18,5.31-11.09-2.13-20.92-8.12-19.99-13.01.94-4.89,12.29-6.82,23.38-4.7Z"/>
          <path class="cls-13" d="M109.35,89.26c10.16,4.92,15.73,10.68,13,16.32-2.73,5.64-10.7,4.83-20.86-.09-10.16-4.92-18.11-13.26-15.94-17.74,2.17-4.48,13.64-3.41,23.8,1.52Z"/>
          <path class="cls-15" d="M113.91,86.61c8.54,7.39,12.43,14.39,8.33,19.13-4.1,4.74-11.59,1.9-20.13-5.49-8.54-7.39-14.06-17.5-10.8-21.26,3.26-3.77,14.05.24,22.6,7.62Z"/>
          <path class="cls-21" d="M119,85.23c6.34,9.35,8.29,17.11,3.1,20.63-5.19,3.52-11.68-1.17-18.02-10.51-6.34-9.35-9.05-20.54-4.93-23.33s13.51,3.87,19.85,13.21Z"/>
          <path class="cls-22" d="M124.27,85.22c3.7,10.67,3.57,18.68-2.35,20.73s-10.98-4.15-14.69-14.82c-3.7-10.67-3.43-22.18,1.28-23.81,4.7-1.63,12.05,7.23,15.76,17.9Z"/>
          <path class="cls-23" d="M129.37,86.57c.82,11.26-1.38,18.96-7.63,19.42s-9.54-6.85-10.35-18.11c-.82-11.26,2.43-22.31,7.4-22.67s9.77,10.11,10.59,21.37Z"/>
          <path class="cls-24" d="M133.94,89.2c-2.13,11.09-6.24,17.96-12.4,16.78-6.15-1.18-7.44-9.09-5.31-20.18,2.13-11.09,8.12-20.92,13.01-19.99,4.89.94,6.82,12.29,4.7,23.38Z"/>
          <path class="cls-14" d="M137.68,92.92c-4.92,10.16-10.68,15.73-16.32,13-5.64-2.73-4.83-10.7.09-20.86,4.92-10.16,13.26-18.11,17.74-15.94,4.48,2.17,3.41,13.64-1.52,23.8Z"/>
          <path class="cls-17" d="M140.33,97.48c-7.39,8.54-14.39,12.43-19.13,8.33-4.74-4.1-1.9-11.59,5.49-20.13,7.39-8.54,17.5-14.06,21.26-10.8s-.24,14.05-7.62,22.6Z"/>
          <path class="cls-16" d="M141.7,102.57c-9.35,6.34-17.11,8.29-20.63,3.1-3.52-5.19,1.17-11.68,10.51-18.02,9.35-6.34,20.54-9.05,23.33-4.93s-3.87,13.51-13.21,19.85Z"/>
          <path class="cls-18" d="M141.72,107.84c-10.67,3.7-18.68,3.57-20.73-2.35-2.06-5.92,4.15-10.98,14.82-14.69,10.67-3.7,22.18-3.43,23.81,1.28s-7.23,12.05-17.9,15.76Z"/>
          <path class="cls-19" d="M140.36,112.94c-11.26.82-18.96-1.38-19.42-7.63-.45-6.25,6.85-9.54,18.11-10.35,11.26-.82,22.31,2.43,22.67,7.4.36,4.97-10.11,9.77-21.37,10.59Z"/>
          <path class="cls-26" d="M137.74,117.51c-11.09-2.13-17.96-6.24-16.78-12.4,1.18-6.15,9.09-7.44,20.18-5.31,11.09,2.13,20.92,8.12,19.99,13.01-.94,4.89-12.29,6.82-23.38,4.7Z"/>
          <path class="cls-20" d="M134.02,121.25c-10.16-4.92-15.73-10.68-13-16.32,2.73-5.64,10.7-4.83,20.86.09,10.16,4.92,18.11,13.26,15.94,17.74-2.17,4.48-13.64,3.41-23.8-1.52Z"/>
          <path class="cls-27" d="M129.46,123.89c-8.54-7.39-12.43-14.39-8.33-19.13,4.1-4.74,11.59-1.9,20.13,5.49,8.54,7.39,14.06,17.5,10.8,21.26-3.26,3.77-14.05-.24-22.6-7.62Z"/>
          <path class="cls-25" d="M124.37,125.27c-6.34-9.35-8.29-17.11-3.1-20.63,5.19-3.52,11.68,1.17,18.02,10.51,6.34,9.35,9.05,20.54,4.93,23.33s-13.51-3.87-19.85-13.21Z"/>
        </g>
        <circle class="cls-28" cx="121.69" cy="105.25" r="53.41"/>
      </g>
    </g>
  </g>
</svg>